<?xml version="1.0" encoding="UTF-8" standalone="no"?>
<!-- Created with Inkscape (http://www.inkscape.org/) -->

<svg
   xmlns:dc="http://purl.org/dc/elements/1.1/"
   xmlns:cc="http://creativecommons.org/ns#"
   xmlns:rdf="http://www.w3.org/1999/02/22-rdf-syntax-ns#"
   xmlns:svg="http://www.w3.org/2000/svg"
   xmlns="http://www.w3.org/2000/svg"
   xmlns:xlink="http://www.w3.org/1999/xlink"
   xmlns:sodipodi="http://sodipodi.sourceforge.net/DTD/sodipodi-0.dtd"
   xmlns:inkscape="http://www.inkscape.org/namespaces/inkscape"
   version="1.0"
   width="96"
   height="96"
   id="svg2408"
   style="display:inline"
   inkscape:version="0.48.3.1 r9886"
   sodipodi:docname="sagemath.svg">
  <sodipodi:namedview
     pagecolor="#ffffff"
     bordercolor="#666666"
     borderopacity="1"
     objecttolerance="10"
     gridtolerance="10"
     guidetolerance="10"
     inkscape:pageopacity="0"
     inkscape:pageshadow="2"
     inkscape:window-width="1918"
     inkscape:window-height="1062"
     id="namedview58"
     showgrid="false"
     inkscape:zoom="9.8333333"
     inkscape:cx="30.355932"
     inkscape:cy="48"
     inkscape:window-x="0"
     inkscape:window-y="16"
     inkscape:window-maximized="0"
     inkscape:current-layer="svg2408" />
  <defs
     id="defs2410">
    <linearGradient
       x1="45.447727"
       y1="92.539597"
       x2="45.447727"
       y2="7.0165396"
       id="ButtonShadow"
       gradientUnits="userSpaceOnUse"
       gradientTransform="scale(1.0058652,0.994169)">
      <stop
         id="stop3750"
         style="stop-color:#000000;stop-opacity:1"
         offset="0" />
      <stop
         id="stop3752"
         style="stop-color:#000000;stop-opacity:0.58823532"
         offset="1" />
    </linearGradient>
    <linearGradient
       id="linearGradient3700">
      <stop
         id="stop3702"
         style="stop-color:#e6e6e6;stop-opacity:1"
         offset="0" />
      <stop
         id="stop3704"
         style="stop-color:#f5f5f5;stop-opacity:1"
         offset="1" />
    </linearGradient>
    <linearGradient
       x1="48"
       y1="90"
       x2="48"
       y2="5.9877172"
       id="linearGradient3706"
       xlink:href="#linearGradient3700"
       gradientUnits="userSpaceOnUse" />
    <filter
       color-interpolation-filters="sRGB"
       id="filter3174">
      <feGaussianBlur
         id="feGaussianBlur3176"
         stdDeviation="1.71" />
    </filter>
    <linearGradient
       x1="45.447727"
       y1="92.539597"
       x2="45.447727"
       y2="7.0165396"
       id="ButtonShadow-0"
       gradientUnits="userSpaceOnUse"
       gradientTransform="matrix(1.0058652,0,0,0.994169,100,0)">
      <stop
         id="stop3750-8"
         style="stop-color:#000000;stop-opacity:1"
         offset="0" />
      <stop
         id="stop3752-5"
         style="stop-color:#000000;stop-opacity:0.58823532"
         offset="1" />
    </linearGradient>
    <linearGradient
       x1="32.251034"
       y1="6.1317081"
       x2="32.251034"
       y2="90.238609"
       id="linearGradient3780"
       xlink:href="#ButtonShadow-0"
       gradientUnits="userSpaceOnUse"
       gradientTransform="matrix(1.0238095,0,0,1.0119048,-1.1428571,-98.071429)" />
    <linearGradient
       x1="32.251034"
       y1="6.1317081"
       x2="32.251034"
       y2="90.238609"
       id="linearGradient3772"
       xlink:href="#ButtonShadow-0"
       gradientUnits="userSpaceOnUse"
       gradientTransform="matrix(1.0238095,0,0,1.0119048,-1.1428571,-98.071429)" />
    <linearGradient
       x1="32.251034"
       y1="6.1317081"
       x2="32.251034"
       y2="90.238609"
       id="linearGradient3725"
       xlink:href="#ButtonShadow-0"
       gradientUnits="userSpaceOnUse"
       gradientTransform="matrix(1.0238095,0,0,1.0119048,-1.1428571,-98.071429)" />
    <linearGradient
       x1="32.251034"
       y1="6.1317081"
       x2="32.251034"
       y2="90.238609"
       id="linearGradient3721"
       xlink:href="#ButtonShadow-0"
       gradientUnits="userSpaceOnUse"
       gradientTransform="translate(0,-97)" />
    <linearGradient
       x1="32.251034"
       y1="6.1317081"
       x2="32.251034"
       y2="90.238609"
       id="linearGradient3760"
       xlink:href="#ButtonShadow-0"
       gradientUnits="userSpaceOnUse"
       gradientTransform="matrix(1.0238095,0,0,1.0119048,-1.1428571,-98.071429)" />
    <linearGradient
       id="linearGradient3737-1">
      <stop
         id="stop3739-9"
         style="stop-color:#ffffff;stop-opacity:1"
         offset="0" />
      <stop
         id="stop3741-3"
         style="stop-color:#ffffff;stop-opacity:0"
         offset="1" />
    </linearGradient>
    <radialGradient
       cx="48"
       cy="90.171875"
       r="42"
       fx="48"
       fy="90.171875"
       id="radialGradient2886"
       xlink:href="#linearGradient3737-0"
       gradientUnits="userSpaceOnUse"
       gradientTransform="matrix(1.1573129,0,0,0.99590774,-7.551021,0.1971319)" />
    <linearGradient
       id="linearGradient3737-0">
      <stop
         id="stop3739-6"
         style="stop-color:#ffffff;stop-opacity:1"
         offset="0" />
      <stop
         id="stop3741-0"
         style="stop-color:#ffffff;stop-opacity:0"
         offset="1" />
    </linearGradient>
    <linearGradient
       x1="36.357143"
       y1="6"
       x2="36.357143"
       y2="63.893143"
       id="linearGradient3923"
       xlink:href="#linearGradient3737-1"
       gradientUnits="userSpaceOnUse" />
    <linearGradient
       id="linearGradient3737-9">
      <stop
         id="stop3739-2"
         style="stop-color:#ffffff;stop-opacity:1"
         offset="0" />
      <stop
         id="stop3741-1"
         style="stop-color:#ffffff;stop-opacity:0"
         offset="1" />
    </linearGradient>
    <clipPath
       id="clipPath3613">
      <rect
         width="84"
         height="84"
         rx="6"
         ry="6"
         x="6"
         y="6"
         id="rect3615"
         style="fill:#ffffff;fill-opacity:1;fill-rule:nonzero;stroke:none" />
    </clipPath>
    <filter
       x="-0.192"
       y="-0.192"
       width="1.3839999"
       height="1.3839999"
       color-interpolation-filters="sRGB"
       id="filter3794">
      <feGaussianBlur
         id="feGaussianBlur3796"
         stdDeviation="5.28" />
    </filter>
    <linearGradient
       x1="48"
       y1="20.220806"
       x2="48"
       y2="138.66119"
       id="linearGradient2890"
       xlink:href="#linearGradient3737-9"
       gradientUnits="userSpaceOnUse" />
  </defs>
  <metadata
     id="metadata2413">
    <rdf:RDF>
      <cc:Work
         rdf:about="">
        <dc:format>image/svg+xml</dc:format>
        <dc:type
           rdf:resource="http://purl.org/dc/dcmitype/StillImage" />
      </cc:Work>
    </rdf:RDF>
  </metadata>
  <g
     id="layer2"
     style="display:none">
    <rect
       width="86"
       height="85"
       rx="6"
       ry="6"
       x="5"
       y="7"
       id="rect3745"
       style="opacity:0.9;fill:url(#ButtonShadow);fill-opacity:1;fill-rule:nonzero;stroke:none;filter:url(#filter3174)" />
  </g>
  <g
     id="layer6"
     style="display:inline">
    <path
       d="m 12,-95.03125 c -5.5110903,0 -10.03125,4.52016 -10.03125,10.03125 l 0,71 c 0,5.5110902 4.5201598,10.03125 10.03125,10.03125 l 72,0 c 5.51109,0 10.03125,-4.5201597 10.03125,-10.03125 l 0,-71 c 0,-5.51109 -4.52016,-10.03125 -10.03125,-10.03125 l -72,0 z"
       transform="scale(1,-1)"
       id="path3786"
       style="opacity:0.07999998;fill:url(#linearGradient3760);fill-opacity:1;fill-rule:nonzero;stroke:none;display:inline" />
    <path
       d="m 12,-94.03125 c -4.971633,0 -9.03125,4.059617 -9.03125,9.03125 l 0,71 c 0,4.9716329 4.0596171,9.03125 9.03125,9.03125 l 72,0 c 4.971633,0 9.03125,-4.059617 9.03125,-9.03125 l 0,-71 c 0,-4.971633 -4.059617,-9.03125 -9.03125,-9.03125 l -72,0 z"
       transform="scale(1,-1)"
       id="path3778"
       style="opacity:0.1;fill:url(#linearGradient3780);fill-opacity:1;fill-rule:nonzero;stroke:none;display:inline" />
    <path
       d="m 12,-93 c -4.4091333,0 -8,3.590867 -8,8 l 0,71 c 0,4.4091333 3.5908667,8 8,8 l 72,0 c 4.409133,0 8,-3.5908667 8,-8 l 0,-71 c 0,-4.409133 -3.590867,-8 -8,-8 l -72,0 z"
       transform="scale(1,-1)"
       id="path3770"
       style="opacity:0.2;fill:url(#linearGradient3772);fill-opacity:1;fill-rule:nonzero;stroke:none;display:inline" />
    <rect
       width="86"
       height="85"
       rx="7"
       ry="7"
       x="5"
       y="-92"
       transform="scale(1,-1)"
       id="rect3723"
       style="opacity:0.3;fill:url(#linearGradient3725);fill-opacity:1;fill-rule:nonzero;stroke:none;display:inline" />
    <rect
       width="84"
       height="84"
       rx="6"
       ry="6"
       x="6"
       y="-91"
       transform="scale(1,-1)"
       id="rect3716"
       style="opacity:0.45;fill:url(#linearGradient3721);fill-opacity:1;fill-rule:nonzero;stroke:none;display:inline" />
  </g>
  <g
     id="layer1"
     style="display:inline">
    <rect
       width="84"
       height="84"
       rx="6"
       ry="6"
       x="6"
       y="6"
       id="rect2419"
       style="fill:url(#linearGradient3706);fill-opacity:1;fill-rule:nonzero;stroke:none" />
    <path
       d="M 12,6 C 8.676,6 6,8.676 6,12 l 0,2 0,68 0,2 c 0,0.334721 0.04135,0.6507 0.09375,0.96875 0.0487,0.295596 0.09704,0.596915 0.1875,0.875 0.0099,0.03038 0.02089,0.0636 0.03125,0.09375 0.09886,0.287771 0.23488,0.547452 0.375,0.8125 0.144592,0.273507 0.315616,0.535615 0.5,0.78125 0.184384,0.245635 0.373776,0.473472 0.59375,0.6875 0.439947,0.428056 0.94291,0.814526 1.5,1.09375 0.278545,0.139612 0.573473,0.246947 0.875,0.34375 -0.256202,-0.100222 -0.486711,-0.236272 -0.71875,-0.375 -0.0074,-0.0044 -0.02387,0.0045 -0.03125,0 -0.03193,-0.0193 -0.06229,-0.04251 -0.09375,-0.0625 -0.120395,-0.0767 -0.231023,-0.163513 -0.34375,-0.25 -0.106173,-0.0808 -0.213281,-0.161112 -0.3125,-0.25 C 8.47832,88.557317 8.30879,88.373362 8.15625,88.1875 8.048671,88.057245 7.937856,87.922215 7.84375,87.78125 7.81866,87.74287 7.8053,87.69538 7.78125,87.65625 7.71649,87.553218 7.651022,87.451733 7.59375,87.34375 7.492742,87.149044 7.388075,86.928049 7.3125,86.71875 7.3045,86.69694 7.28891,86.6782 7.28125,86.65625 7.24942,86.5643 7.24545,86.469419 7.21875,86.375 7.188418,86.268382 7.148361,86.171969 7.125,86.0625 7.052121,85.720988 7,85.364295 7,85 L 7,83 7,15 7,13 C 7,10.218152 9.218152,8 12,8 l 2,0 68,0 2,0 c 2.781848,0 5,2.218152 5,5 l 0,2 0,68 0,2 c 0,0.364295 -0.05212,0.720988 -0.125,1.0625 -0.04415,0.206893 -0.08838,0.397658 -0.15625,0.59375 -0.0077,0.02195 -0.0233,0.04069 -0.03125,0.0625 -0.06274,0.173739 -0.138383,0.367449 -0.21875,0.53125 -0.04158,0.0828 -0.07904,0.169954 -0.125,0.25 -0.0546,0.09721 -0.126774,0.18835 -0.1875,0.28125 -0.09411,0.140965 -0.204921,0.275995 -0.3125,0.40625 -0.143174,0.17445 -0.303141,0.346998 -0.46875,0.5 -0.01117,0.0102 -0.01998,0.02115 -0.03125,0.03125 -0.138386,0.125556 -0.285091,0.234436 -0.4375,0.34375 -0.102571,0.07315 -0.204318,0.153364 -0.3125,0.21875 -0.0074,0.0045 -0.02384,-0.0044 -0.03125,0 -0.232039,0.138728 -0.462548,0.274778 -0.71875,0.375 0.301527,-0.0968 0.596455,-0.204138 0.875,-0.34375 0.55709,-0.279224 1.060053,-0.665694 1.5,-1.09375 0.219973,-0.214028 0.409366,-0.441865 0.59375,-0.6875 0.184384,-0.245635 0.355408,-0.507743 0.5,-0.78125 0.14012,-0.265048 0.276135,-0.524729 0.375,-0.8125 0.01041,-0.03078 0.02133,-0.06274 0.03125,-0.09375 0.09046,-0.278085 0.1388,-0.579404 0.1875,-0.875 C 89.95865,84.6507 90,84.334721 90,84 l 0,-2 0,-68 0,-2 C 90,8.676 87.324,6 84,6 L 12,6 z"
       inkscape:connector-curvature="0"
       id="rect3728"
       style="opacity:0.5;fill:url(#linearGradient3923);fill-opacity:1;fill-rule:nonzero;stroke:none;display:inline" />
    <path
       d="M 12,90 C 8.676,90 6,87.324 6,84 L 6,82 6,14 6,12 c 0,-0.334721 0.04135,-0.6507 0.09375,-0.96875 0.0487,-0.295596 0.09704,-0.596915 0.1875,-0.875 C 6.29113,10.12587 6.302142,10.09265 6.3125,10.0625 6.411365,9.774729 6.5473802,9.515048 6.6875,9.25 6.8320918,8.976493 7.0031161,8.714385 7.1875,8.46875 7.3718839,8.223115 7.5612765,7.995278 7.78125,7.78125 8.221197,7.353194 8.72416,6.966724 9.28125,6.6875 9.559795,6.547888 9.8547231,6.440553 10.15625,6.34375 9.9000482,6.443972 9.6695391,6.580022 9.4375,6.71875 c -0.00741,0.0044 -0.023866,-0.0045 -0.03125,0 -0.031933,0.0193 -0.062293,0.04251 -0.09375,0.0625 -0.120395,0.0767 -0.2310226,0.163513 -0.34375,0.25 -0.1061728,0.0808 -0.2132809,0.161112 -0.3125,0.25 C 8.4783201,7.442683 8.3087904,7.626638 8.15625,7.8125 8.0486711,7.942755 7.9378561,8.077785 7.84375,8.21875 7.818661,8.25713 7.805304,8.30462 7.78125,8.34375 7.716487,8.446782 7.6510225,8.548267 7.59375,8.65625 7.4927417,8.850956 7.3880752,9.071951 7.3125,9.28125 7.30454,9.30306 7.288911,9.3218 7.28125,9.34375 7.2494249,9.4357 7.2454455,9.530581 7.21875,9.625 7.1884177,9.731618 7.1483606,9.828031 7.125,9.9375 7.0521214,10.279012 7,10.635705 7,11 l 0,2 0,68 0,2 c 0,2.781848 2.2181517,5 5,5 l 2,0 68,0 2,0 c 2.781848,0 5,-2.218152 5,-5 l 0,-2 0,-68 0,-2 C 89,10.635705 88.94788,10.279012 88.875,9.9375 88.83085,9.730607 88.78662,9.539842 88.71875,9.34375 88.71105,9.3218 88.69545,9.30306 88.6875,9.28125 88.62476,9.107511 88.549117,8.913801 88.46875,8.75 88.42717,8.6672 88.38971,8.580046 88.34375,8.5 88.28915,8.40279 88.216976,8.31165 88.15625,8.21875 88.06214,8.077785 87.951329,7.942755 87.84375,7.8125 87.700576,7.63805 87.540609,7.465502 87.375,7.3125 87.36383,7.3023 87.35502,7.29135 87.34375,7.28125 87.205364,7.155694 87.058659,7.046814 86.90625,6.9375 86.803679,6.86435 86.701932,6.784136 86.59375,6.71875 c -0.0074,-0.0045 -0.02384,0.0044 -0.03125,0 -0.232039,-0.138728 -0.462548,-0.274778 -0.71875,-0.375 0.301527,0.0968 0.596455,0.204138 0.875,0.34375 0.55709,0.279224 1.060053,0.665694 1.5,1.09375 0.219973,0.214028 0.409366,0.441865 0.59375,0.6875 0.184384,0.245635 0.355408,0.507743 0.5,0.78125 0.14012,0.265048 0.276135,0.524729 0.375,0.8125 0.01041,0.03078 0.02133,0.06274 0.03125,0.09375 0.09046,0.278085 0.1388,0.579404 0.1875,0.875 C 89.95865,11.3493 90,11.665279 90,12 l 0,2 0,68 0,2 c 0,3.324 -2.676,6 -6,6 l -72,0 z"
       inkscape:connector-curvature="0"
       id="path3615"
       style="opacity:0.4;fill:url(#radialGradient2886);fill-opacity:1;fill-rule:nonzero;stroke:none;display:inline" />
    <rect
       width="84"
       height="84"
       rx="6"
       ry="6"
       x="-94"
       y="6"
       id="rect3654"
       style="fill:#ff00ff;fill-opacity:1;fill-rule:nonzero;stroke:none" />
    <rect
       width="16"
       height="16"
       x="112"
       y="8"
       id="rect3797"
       style="color:#000000;fill:#ffffff;stroke:#000000;stroke-width:0.5;stroke-linecap:round;stroke-linejoin:miter;stroke-miterlimit:4;stroke-opacity:1;stroke-dasharray:none;stroke-dashoffset:8.6;marker:none;visibility:visible;display:inline;overflow:visible;enable-background:accumulate" />
    <text
       x="131.39261"
       y="11.969256"
       id="text3799"
       xml:space="preserve"
       style="font-size:4px;font-style:normal;font-variant:normal;font-weight:normal;font-stretch:normal;text-align:start;line-height:125%;writing-mode:lr-tb;text-anchor:start;fill:#000000;fill-opacity:1;stroke:none;display:inline;font-family:Liberation Sans;-inkscape-font-specification:Liberation Sans"><tspan
         x="131.39261"
         y="11.969256"
         id="tspan3801">Width: 2px</tspan><tspan
         x="131.39261"
         y="16.969257"
         id="tspan3803">Blur: 12</tspan><tspan
         x="131.39261"
         y="21.969257"
         id="tspan3807">Opacity: 60</tspan></text>
  </g>
  <g
     id="layer3">
    <rect
       width="66"
       height="66"
       rx="12"
       ry="12"
       x="15"
       y="15"
       clip-path="url(#clipPath3613)"
       id="rect3171"
       style="opacity:0.5;fill:url(#linearGradient2890);fill-opacity:1;fill-rule:nonzero;stroke:#ffffff;stroke-width:0.5;stroke-linecap:round;stroke-linejoin:miter;stroke-miterlimit:4;stroke-opacity:1;stroke-dasharray:none;stroke-dashoffset:0;filter:url(#filter3794)" />
  </g>
  <rect
     inkscape:export-ydpi="90"
     inkscape:export-xdpi="90"
     style="fill:#1919bf;fill-opacity:1;stroke:none"
     id="rect5084"
     width="85.661011"
     height="85.62384"
     x="5.2203522"
     y="5.6966381"
     rx="8.1248455"
     ry="8.1213217" />
  <g
     transform="matrix(0.53269893,0,0,0.54248711,-785.55872,-1214.6476)"
     id="g5086">
    <path
       sodipodi:type="arc"
       style="opacity:0.98999999;fill:#ffffff;fill-opacity:1;stroke:none"
       id="path5088"
       sodipodi:cx="1324.929"
       sodipodi:cy="1792.4095"
       sodipodi:rx="7.3256478"
       sodipodi:ry="7.3256478"
       d="m 1332.2546,1792.4095 c 0,4.0459 -3.2798,7.3257 -7.3256,7.3257 -4.0459,0 -7.3257,-3.2798 -7.3257,-7.3257 0,-4.0458 3.2798,-7.3256 7.3257,-7.3256 4.0458,0 7.3256,3.2798 7.3256,7.3256 z"
       transform="matrix(0.9672595,0,0,0.9672595,235.69886,548.04605)" />
    <path
       transform="matrix(0.9672595,0,0,0.9672595,308.74604,539.35166)"
       d="m 1332.2546,1792.4095 c 0,4.0459 -3.2798,7.3257 -7.3256,7.3257 -4.0459,0 -7.3257,-3.2798 -7.3257,-7.3257 0,-4.0458 3.2798,-7.3256 7.3257,-7.3256 4.0458,0 7.3256,3.2798 7.3256,7.3256 z"
       sodipodi:ry="7.3256478"
       sodipodi:rx="7.3256478"
       sodipodi:cy="1792.4095"
       sodipodi:cx="1324.929"
       id="path5090"
       style="opacity:0.98999999;fill:#ffffff;fill-opacity:1;stroke:none"
       sodipodi:type="arc" />
    <path
       sodipodi:type="arc"
       style="opacity:0.98999999;fill:#ffffff;fill-opacity:1;stroke:none"
       id="path5092"
       sodipodi:cx="1324.929"
       sodipodi:cy="1792.4095"
       sodipodi:rx="7.3256478"
       sodipodi:ry="7.3256478"
       d="m 1332.2546,1792.4095 c 0,4.0459 -3.2798,7.3257 -7.3256,7.3257 -4.0459,0 -7.3257,-3.2798 -7.3257,-7.3257 0,-4.0458 3.2798,-7.3256 7.3257,-7.3256 4.0458,0 7.3256,3.2798 7.3256,7.3256 z"
       transform="matrix(1.2053547,0,0,1.2053547,-25.196551,182.19849)" />
    <path
       sodipodi:type="arc"
       style="opacity:0.98999999;fill:#ffffff;fill-opacity:1;stroke:none"
       id="path5094"
       sodipodi:cx="1324.929"
       sodipodi:cy="1792.4095"
       sodipodi:rx="7.3256478"
       sodipodi:ry="7.3256478"
       d="m 1332.2546,1792.4095 c 0,4.0459 -3.2798,7.3257 -7.3256,7.3257 -4.0459,0 -7.3257,-3.2798 -7.3257,-7.3257 0,-4.0458 3.2798,-7.3256 7.3257,-7.3256 4.0458,0 7.3256,3.2798 7.3256,7.3256 z"
       transform="matrix(0.7953719,0,0,0.7953719,449.34462,925.45441)" />
    <path
       transform="matrix(0.7953719,0,0,0.7953719,499.30379,973.24771)"
       d="m 1332.2546,1792.4095 c 0,4.0459 -3.2798,7.3257 -7.3256,7.3257 -4.0459,0 -7.3257,-3.2798 -7.3257,-7.3257 0,-4.0458 3.2798,-7.3256 7.3257,-7.3256 4.0458,0 7.3256,3.2798 7.3256,7.3256 z"
       sodipodi:ry="7.3256478"
       sodipodi:rx="7.3256478"
       sodipodi:cy="1792.4095"
       sodipodi:cx="1324.929"
       id="path5096"
       style="opacity:0.98999999;fill:#ffffff;fill-opacity:1;stroke:none"
       sodipodi:type="arc" />
    <path
       sodipodi:type="arc"
       style="opacity:0.98999999;fill:#ffffff;fill-opacity:1;stroke:none"
       id="path5098"
       sodipodi:cx="1324.929"
       sodipodi:cy="1792.4095"
       sodipodi:rx="7.3256478"
       sodipodi:ry="7.3256478"
       d="m 1332.2546,1792.4095 c 0,4.0459 -3.2798,7.3257 -7.3256,7.3257 -4.0459,0 -7.3257,-3.2798 -7.3257,-7.3257 0,-4.0458 3.2798,-7.3256 7.3257,-7.3256 4.0458,0 7.3256,3.2798 7.3256,7.3256 z"
       transform="matrix(0.7953719,0,0,0.7953719,556.29908,956.69427)" />
    <path
       transform="matrix(0.7953719,0,0,0.7953719,581.00221,902.90894)"
       d="m 1332.2546,1792.4095 c 0,4.0459 -3.2798,7.3257 -7.3256,7.3257 -4.0459,0 -7.3257,-3.2798 -7.3257,-7.3257 0,-4.0458 3.2798,-7.3256 7.3257,-7.3256 4.0458,0 7.3256,3.2798 7.3256,7.3256 z"
       sodipodi:ry="7.3256478"
       sodipodi:rx="7.3256478"
       sodipodi:cy="1792.4095"
       sodipodi:cx="1324.929"
       id="path5100"
       style="opacity:0.98999999;fill:#ffffff;fill-opacity:1;stroke:none"
       sodipodi:type="arc" />
    <path
       sodipodi:type="arc"
       style="opacity:0.98999999;fill:#ffffff;fill-opacity:1;stroke:none"
       id="path5102"
       sodipodi:cx="1324.929"
       sodipodi:cy="1792.4095"
       sodipodi:rx="7.3256478"
       sodipodi:ry="7.3256478"
       d="m 1332.2546,1792.4095 c 0,4.0459 -3.2798,7.3257 -7.3256,7.3257 -4.0459,0 -7.3257,-3.2798 -7.3257,-7.3257 0,-4.0458 3.2798,-7.3256 7.3257,-7.3256 4.0458,0 7.3256,3.2798 7.3256,7.3256 z"
       transform="matrix(0.6234843,0,0,0.6234843,800.65848,1180.6657)" />
    <path
       transform="matrix(0.6234843,0,0,0.6234843,766.33259,1139.9519)"
       d="m 1332.2546,1792.4095 c 0,4.0459 -3.2798,7.3257 -7.3256,7.3257 -4.0459,0 -7.3257,-3.2798 -7.3257,-7.3257 0,-4.0458 3.2798,-7.3256 7.3257,-7.3256 4.0458,0 7.3256,3.2798 7.3256,7.3256 z"
       sodipodi:ry="7.3256478"
       sodipodi:rx="7.3256478"
       sodipodi:cy="1792.4095"
       sodipodi:cx="1324.929"
       id="path5104"
       style="opacity:0.98999999;fill:#ffffff;fill-opacity:1;stroke:none"
       sodipodi:type="arc" />
    <path
       sodipodi:type="arc"
       style="opacity:0.98999999;fill:#ffffff;fill-opacity:1;stroke:none"
       id="path5106"
       sodipodi:cx="1324.929"
       sodipodi:cy="1792.4095"
       sodipodi:rx="7.3256478"
       sodipodi:ry="7.3256478"
       d="m 1332.2546,1792.4095 c 0,4.0459 -3.2798,7.3257 -7.3256,7.3257 -4.0459,0 -7.3257,-3.2798 -7.3257,-7.3257 0,-4.0458 3.2798,-7.3256 7.3257,-7.3256 4.0458,0 7.3256,3.2798 7.3256,7.3256 z"
       transform="matrix(0.6234843,0,0,0.6234843,664.75027,1230.1938)" />
    <path
       transform="matrix(0.6234843,0,0,0.6234843,701.58781,1267.5497)"
       d="m 1332.2546,1792.4095 c 0,4.0459 -3.2798,7.3257 -7.3256,7.3257 -4.0459,0 -7.3257,-3.2798 -7.3257,-7.3257 0,-4.0458 3.2798,-7.3256 7.3257,-7.3256 4.0458,0 7.3256,3.2798 7.3256,7.3256 z"
       sodipodi:ry="7.3256478"
       sodipodi:rx="7.3256478"
       sodipodi:cy="1792.4095"
       sodipodi:cx="1324.929"
       id="path5108"
       style="opacity:0.98999999;fill:#ffffff;fill-opacity:1;stroke:none"
       sodipodi:type="arc" />
    <path
       transform="matrix(0.7953719,0,0,0.7953719,440.41431,869.81028)"
       d="m 1332.2546,1792.4095 c 0,4.0459 -3.2798,7.3257 -7.3256,7.3257 -4.0459,0 -7.3257,-3.2798 -7.3257,-7.3257 0,-4.0458 3.2798,-7.3256 7.3257,-7.3256 4.0458,0 7.3256,3.2798 7.3256,7.3256 z"
       sodipodi:ry="7.3256478"
       sodipodi:rx="7.3256478"
       sodipodi:cy="1792.4095"
       sodipodi:cx="1324.929"
       id="path5110"
       style="opacity:0.98999999;fill:#ffffff;fill-opacity:1;stroke:none"
       sodipodi:type="arc" />
    <path
       sodipodi:type="arc"
       style="opacity:0.98999999;fill:#ffffff;fill-opacity:1;stroke:none"
       id="path5112"
       sodipodi:cx="1324.929"
       sodipodi:cy="1792.4095"
       sodipodi:rx="7.3256478"
       sodipodi:ry="7.3256478"
       d="m 1332.2546,1792.4095 c 0,4.0459 -3.2798,7.3257 -7.3256,7.3257 -4.0459,0 -7.3257,-3.2798 -7.3257,-7.3257 0,-4.0458 3.2798,-7.3256 7.3257,-7.3256 4.0458,0 7.3256,3.2798 7.3256,7.3256 z"
       transform="matrix(0.7953719,0,0,0.7953719,484.50773,829.39633)" />
    <path
       sodipodi:type="arc"
       style="opacity:0.98999999;fill:#ffffff;fill-opacity:1;stroke:none"
       id="path5114"
       sodipodi:cx="1324.929"
       sodipodi:cy="1792.4095"
       sodipodi:rx="7.3256478"
       sodipodi:ry="7.3256478"
       d="m 1332.2546,1792.4095 c 0,4.0459 -3.2798,7.3257 -7.3256,7.3257 -4.0459,0 -7.3257,-3.2798 -7.3257,-7.3257 0,-4.0458 3.2798,-7.3256 7.3257,-7.3256 4.0458,0 7.3256,3.2798 7.3256,7.3256 z"
       transform="matrix(0.6234843,0,0,0.6234843,699.00639,1196.6154)" />
    <path
       transform="matrix(0.6234843,0,0,0.6234843,749.0301,1256.3969)"
       d="m 1332.2546,1792.4095 c 0,4.0459 -3.2798,7.3257 -7.3256,7.3257 -4.0459,0 -7.3257,-3.2798 -7.3257,-7.3257 0,-4.0458 3.2798,-7.3256 7.3257,-7.3256 4.0458,0 7.3256,3.2798 7.3256,7.3256 z"
       sodipodi:ry="7.3256478"
       sodipodi:rx="7.3256478"
       sodipodi:cy="1792.4095"
       sodipodi:cx="1324.929"
       id="path5116"
       style="opacity:0.98999999;fill:#ffffff;fill-opacity:1;stroke:none"
       sodipodi:type="arc" />
    <path
       inkscape:connector-curvature="0"
       style="fill:none;stroke:#ffffff;stroke-width:8;stroke-linecap:butt;stroke-linejoin:miter;stroke-miterlimit:4;stroke-opacity:1;stroke-dasharray:none"
       d="m 1590.0065,2271.6035 -18.6281,72.6731"
       id="path5118" />
    <path
       inkscape:connector-curvature="0"
       style="fill:none;stroke:#ffffff;stroke-width:8;stroke-linecap:butt;stroke-linejoin:miter;stroke-miterlimit:4;stroke-opacity:1;stroke-dasharray:none"
       d="m 1589.0995,2273.5223 -72.5588,8.4545"
       id="path5120" />
    <path
       inkscape:connector-curvature="0"
       style="fill:none;stroke:#ffffff;stroke-width:8;stroke-linecap:butt;stroke-linejoin:miter;stroke-miterlimit:4;stroke-opacity:1;stroke-dasharray:none"
       d="m 1571.3087,2343.4372 -54.6982,-61.8801"
       id="path5122" />
    <path
       inkscape:connector-curvature="0"
       style="fill:none;stroke:#ffffff;stroke-width:6;stroke-linecap:butt;stroke-linejoin:miter;stroke-miterlimit:4;stroke-opacity:1;stroke-dasharray:none"
       d="m 1571.3087,2343.8569 -18.07,55.944"
       id="path5124" />
    <path
       inkscape:connector-curvature="0"
       style="fill:none;stroke:#ffffff;stroke-width:4;stroke-linecap:butt;stroke-linejoin:miter;stroke-miterlimit:4;stroke-opacity:1;stroke-dasharray:none"
       d="m 1516.4012,2281.3172 21.0002,-24.3443"
       id="path5126" />
    <path
       inkscape:connector-curvature="0"
       style="fill:none;stroke:#ffffff;stroke-width:4;stroke-linecap:butt;stroke-linejoin:miter;stroke-miterlimit:4;stroke-opacity:1;stroke-dasharray:none"
       d="m 1493.9359,2295.4681 21.7676,-14.3307"
       id="path5128" />
    <path
       inkscape:connector-curvature="0"
       style="fill:none;stroke:#ffffff;stroke-width:4;stroke-linecap:butt;stroke-linejoin:miter;stroke-miterlimit:4;stroke-opacity:1;stroke-dasharray:none"
       d="m 1503.0057,2350.6326 13.3955,-69.9749"
       id="path5130" />
    <path
       inkscape:connector-curvature="0"
       style="fill:none;stroke:#ffffff;stroke-width:6;stroke-linecap:butt;stroke-linejoin:miter;stroke-miterlimit:4;stroke-opacity:1;stroke-dasharray:none"
       d="m 1552.1922,2398.5417 -49.5353,-46.59"
       id="path5132" />
    <path
       inkscape:connector-curvature="0"
       style="fill:none;stroke:#ffffff;stroke-width:6;stroke-linecap:butt;stroke-linejoin:miter;stroke-miterlimit:4;stroke-opacity:1;stroke-dasharray:none"
       d="m 1610.0997,2381.3328 -58.1168,16.969"
       id="path5134" />
    <path
       inkscape:connector-curvature="0"
       style="fill:none;stroke:#ffffff;stroke-width:6;stroke-linecap:butt;stroke-linejoin:miter;stroke-miterlimit:4;stroke-opacity:1;stroke-dasharray:none"
       d="m 1634.2395,2328.3869 -24.1398,53.1257"
       id="path5136" />
    <path
       inkscape:connector-curvature="0"
       style="fill:none;stroke:#ffffff;stroke-width:6;stroke-linecap:butt;stroke-linejoin:miter;stroke-miterlimit:4;stroke-opacity:1;stroke-dasharray:none"
       d="m 1570.5412,2343.4372 62.8611,-14.6306"
       id="path5138" />
    <path
       inkscape:connector-curvature="0"
       style="fill:none;stroke:#ffffff;stroke-width:6;stroke-linecap:butt;stroke-linejoin:miter;stroke-miterlimit:4;stroke-opacity:1;stroke-dasharray:none"
       d="m 1590.1461,2273.0426 43.1166,55.1644"
       id="path5140" />
    <path
       inkscape:connector-curvature="0"
       style="fill:none;stroke:#ffffff;stroke-width:6;stroke-linecap:butt;stroke-linejoin:miter;stroke-miterlimit:4;stroke-opacity:1;stroke-dasharray:none"
       d="m 1501.7987,2350.6326 66.9774,-7.1954"
       id="path5142" />
    <path
       inkscape:connector-curvature="0"
       style="fill:none;stroke:#ffffff;stroke-width:4;stroke-linecap:butt;stroke-linejoin:miter;stroke-miterlimit:4;stroke-opacity:1;stroke-dasharray:none"
       d="m 1551.4038,2398.062 -24.4188,-13.1316"
       id="path5144" />
    <path
       inkscape:connector-curvature="0"
       style="fill:none;stroke:#ffffff;stroke-width:4;stroke-linecap:butt;stroke-linejoin:miter;stroke-miterlimit:4;stroke-opacity:1;stroke-dasharray:none"
       d="m 1489.38,2347.2747 36.3492,37.296"
       id="path5146" />
    <path
       inkscape:connector-curvature="0"
       style="fill:none;stroke:#ffffff;stroke-width:4;stroke-linecap:butt;stroke-linejoin:miter;stroke-miterlimit:4;stroke-opacity:1;stroke-dasharray:none"
       d="m 1493.2173,2295.9478 -2.721,51.3269"
       id="path5148" />
    <path
       inkscape:connector-curvature="0"
       style="fill:none;stroke:#ffffff;stroke-width:4;stroke-linecap:butt;stroke-linejoin:miter;stroke-miterlimit:4;stroke-opacity:1;stroke-dasharray:none"
       d="m 1537.3805,2254.8743 54.0702,1.8588"
       id="path5150" />
    <path
       inkscape:connector-curvature="0"
       style="fill:none;stroke:#ffffff;stroke-width:4;stroke-linecap:butt;stroke-linejoin:miter;stroke-miterlimit:4;stroke-opacity:1;stroke-dasharray:none"
       d="m 1627.172,2298.5261 -34.2562,-41.9729"
       id="path5152" />
    <path
       inkscape:connector-curvature="0"
       style="fill:none;stroke:#ffffff;stroke-width:4;stroke-linecap:butt;stroke-linejoin:miter;stroke-miterlimit:4;stroke-opacity:1;stroke-dasharray:none"
       d="m 1635.4744,2328.207 -9.0001,-30.1006"
       id="path5154" />
    <path
       inkscape:connector-curvature="0"
       style="fill:none;stroke:#ffffff;stroke-width:4;stroke-linecap:butt;stroke-linejoin:miter;stroke-miterlimit:4;stroke-opacity:1;stroke-dasharray:none"
       d="m 1589.4972,2272.2631 3.2093,-15.2902"
       id="path5156" />
    <path
       inkscape:connector-curvature="0"
       style="fill:none;stroke:#ffffff;stroke-width:4;stroke-linecap:butt;stroke-linejoin:miter;stroke-miterlimit:4;stroke-opacity:1;stroke-dasharray:none"
       d="m 1503.6825,2351.2305 -14.1629,-2.6983"
       id="path5158" />
    <path
       inkscape:connector-curvature="0"
       style="fill:none;stroke:#ffffff;stroke-width:2;stroke-linecap:butt;stroke-linejoin:miter;stroke-miterlimit:4;stroke-opacity:1;stroke-dasharray:none"
       d="m 1526.985,2385.4084 46.7446,-11.4526"
       id="path5160" />
    <path
       inkscape:connector-curvature="0"
       style="fill:none;stroke:#ffffff;stroke-width:2;stroke-linecap:butt;stroke-linejoin:miter;stroke-miterlimit:4;stroke-opacity:1;stroke-dasharray:none"
       d="m 1574.9157,2373.8958 33.6282,7.2554"
       id="path5162" />
    <path
       inkscape:connector-curvature="0"
       style="fill:none;stroke:#ffffff;stroke-width:2;stroke-linecap:butt;stroke-linejoin:miter;stroke-miterlimit:4;stroke-opacity:1;stroke-dasharray:none"
       d="m 1492.5121,2295.941 61.203,-6.8478"
       id="path5164" />
    <path
       inkscape:connector-curvature="0"
       style="fill:none;stroke:#ffffff;stroke-width:2;stroke-linecap:butt;stroke-linejoin:miter;stroke-miterlimit:4;stroke-opacity:1;stroke-dasharray:none"
       d="m 1553.7151,2287.7387 36.4241,-13.5452"
       id="path5166" />
    <path
       sodipodi:type="arc"
       style="opacity:0.98999999;fill:#ffffff;fill-opacity:1;stroke:none"
       id="path5168"
       sodipodi:cx="1324.929"
       sodipodi:cy="1792.4095"
       sodipodi:rx="7.3256478"
       sodipodi:ry="7.3256478"
       d="m 1332.2546,1792.4095 c 0,4.0459 -3.2798,7.3257 -7.3256,7.3257 -4.0459,0 -7.3257,-3.2798 -7.3257,-7.3257 0,-4.0458 3.2798,-7.3256 7.3257,-7.3256 4.0458,0 7.3256,3.2798 7.3256,7.3256 z"
       transform="matrix(0.6234843,0,0,0.6234843,726.86911,1170.9368)" />
    <path
       transform="matrix(0.5833906,0,0,0.5833906,837.2333,1298.2147)"
       d="m 1332.2546,1792.4095 c 0,4.0459 -3.2798,7.3257 -7.3256,7.3257 -4.0459,0 -7.3257,-3.2798 -7.3257,-7.3257 0,-4.0458 3.2798,-7.3256 7.3257,-7.3256 4.0458,0 7.3256,3.2798 7.3256,7.3256 z"
       sodipodi:ry="7.3256478"
       sodipodi:rx="7.3256478"
       sodipodi:cy="1792.4095"
       sodipodi:cx="1324.929"
       id="path5170"
       style="opacity:0.98999999;fill:#ffffff;fill-opacity:1;stroke:none"
       sodipodi:type="arc" />
    <path
       inkscape:connector-curvature="0"
       style="fill:none;stroke:#ffffff;stroke-width:2;stroke-linecap:butt;stroke-linejoin:miter;stroke-miterlimit:4;stroke-opacity:1;stroke-dasharray:none"
       d="m 1609.6576,2343.739 16.404,-46.0639"
       id="path5172" />
    <path
       inkscape:connector-curvature="0"
       style="fill:none;stroke:#ffffff;stroke-width:2;stroke-linecap:butt;stroke-linejoin:miter;stroke-miterlimit:4;stroke-opacity:1;stroke-dasharray:none"
       d="m 1609.4298,2381.481 0.5696,-38.77"
       id="path5174" />
    <path
       inkscape:connector-curvature="0"
       id="path5176"
       d="m 1502.1919,2350.0723 23.4339,-35.9573"
       style="fill:none;stroke:#ffffff;stroke-width:2;stroke-linecap:butt;stroke-linejoin:miter;stroke-miterlimit:4;stroke-opacity:1;stroke-dasharray:none" />
    <path
       inkscape:connector-curvature="0"
       id="path5178"
       d="M 1537.8572,2255.3651 1524.94,2314.115"
       style="fill:none;stroke:#ffffff;stroke-width:2;stroke-linecap:butt;stroke-linejoin:miter;stroke-miterlimit:4;stroke-opacity:1;stroke-dasharray:none" />
  </g>
</svg>
