<?xml version="1.0" encoding="UTF-8" standalone="no"?>
<!-- Created with Inkscape (http://www.inkscape.org/) -->

<svg
   xmlns:dc="http://purl.org/dc/elements/1.1/"
   xmlns:cc="http://creativecommons.org/ns#"
   xmlns:rdf="http://www.w3.org/1999/02/22-rdf-syntax-ns#"
   xmlns:svg="http://www.w3.org/2000/svg"
   xmlns="http://www.w3.org/2000/svg"
   xmlns:sodipodi="http://sodipodi.sourceforge.net/DTD/sodipodi-0.dtd"
   xmlns:inkscape="http://www.inkscape.org/namespaces/inkscape"
   width="128"
   height="128"
   id="svg3003"
   version="1.1"
   inkscape:version="0.48.3.1 r9886"
   sodipodi:docname="New document 2">
  <defs
     id="defs3005" />
  <sodipodi:namedview
     id="base"
     pagecolor="#ffffff"
     bordercolor="#666666"
     borderopacity="1.0"
     inkscape:pageopacity="0.0"
     inkscape:pageshadow="2"
     inkscape:zoom="1.4"
     inkscape:cx="91.209723"
     inkscape:cy="127.57682"
     inkscape:document-units="px"
     inkscape:current-layer="layer1"
     showgrid="false"
     width="49px"
     showborder="true"
     inkscape:window-width="1918"
     inkscape:window-height="1062"
     inkscape:window-x="0"
     inkscape:window-y="16"
     inkscape:window-maximized="0" />
  <metadata
     id="metadata3008">
    <rdf:RDF>
      <cc:Work
         rdf:about="">
        <dc:format>image/svg+xml</dc:format>
        <dc:type
           rdf:resource="http://purl.org/dc/dcmitype/StillImage" />
        <dc:title></dc:title>
      </cc:Work>
    </rdf:RDF>
  </metadata>
  <g
     inkscape:label="Layer 1"
     inkscape:groupmode="layer"
     id="layer1"
     transform="translate(0,-924.3622)">
    <path
       style="fill:#808080;stroke:#808080;stroke-width:0.3595601;stroke-opacity:1"
       id="path3101"
       d="m 54.784421,939.68339 c -0.454901,3.67977 -0.809183,7.36955 -1.053732,11.07424 -0.323658,5.69216 -0.168878,11.40067 -0.02547,17.09672 0.204413,6.38689 0.784096,12.74657 1.31669,19.1061 0.742819,7.2829 1.463423,14.56815 2.16672,21.85615 0.562233,6.4475 1.374834,12.8617 2.054528,19.2937 0.387291,3.8327 0.853243,7.6578 1.153516,11.5011 0.168685,2.285 -0.856438,4.0329 -2.105584,5.7194 -2.300435,2.0413 -2.525562,0.9787 -1.771214,2.5989 0.08983,0.1933 -0.152552,0.3365 -0.242394,0.1432 l 0,0 c -0.768331,-1.6545 -0.09893,-0.7757 -3.05715,-0.4434 -0.738169,-0.1344 -2.091372,-0.2933 -2.809769,-0.7282 -1.578817,-0.9557 -2.176088,-3.2472 -2.687086,-4.9998 -0.74337,-3.97 -0.942647,-8.0376 -1.424269,-12.0534 -0.687546,-6.5102 -1.442324,-13.0114 -2.024515,-19.5353 -0.633244,-7.3804 -1.382051,-14.74868 -1.935144,-22.13736 -0.454452,-6.74052 -0.676088,-13.49838 -0.520424,-20.25923 0.100746,-6.28542 0.249916,-12.59167 1.087088,-18.81781 0.706738,-4.22593 1.586882,-8.44524 3.297025,-12.31999 1.822169,-6.84029 10.403354,-3.93529 8.581188,2.90498 z"
       inkscape:connector-curvature="0" />
    <path
       style="fill:#808080;stroke:#808080;stroke-width:0.3595601;stroke-opacity:1"
       id="path3105"
       d="m 90.704948,934.6996 c 0.94051,3.92704 1.474733,7.95967 2.049264,11.96997 0.78072,5.69861 1.152447,11.45066 1.667853,17.183 0.504441,6.05217 1.243395,12.07522 1.984778,18.09502 0.743798,6.12902 1.374228,12.27421 2.087488,18.40771 0.59275,5.0656 1.36077,10.1034 2.248989,15.113 0.60459,3.4517 1.24245,6.896 1.99663,10.3104 0.24697,1.3559 0.67868,1.9658 -0.0339,3.1663 -0.9237,1.0296 -0.63472,2.1105 -0.99047,3.2567 -0.0823,0.2649 -0.22938,0.4983 -0.34406,0.7474 -0.26718,0.9816 -1.229,1.3783 -1.641569,2.2229 -0.10543,0.2158 0.0776,0.4852 0.11627,0.7278 0.10057,0.1863 -0.13312,0.3468 -0.23373,0.1605 l 0,0 c -0.1824,-0.167 -0.3162,-0.4527 -0.54721,-0.5007 -5.368908,-1.1156 0.953619,0.96 -2.726246,-0.3254 -0.413801,-0.2381 -0.798954,-0.5488 -1.236286,-0.7256 -0.660491,-0.2668 -1.498733,0.1607 -2.098334,-0.484 -1.493405,-1.1747 -2.026689,-2.9876 -2.44049,-4.9231 -0.760703,-3.638 -1.48756,-7.2858 -2.081686,-10.9639 -0.883846,-5.3357 -1.757943,-10.6754 -2.26253,-16.0781 -0.626192,-6.10869 -1.11303,-12.23512 -1.836389,-18.33114 -0.688167,-6.25373 -1.351299,-12.5117 -1.768776,-18.79746 -0.302011,-5.57848 -0.64488,-11.15471 -1.035912,-16.72617 -0.270221,-3.77713 -0.632232,-7.54215 -0.984024,-11.31008 -1.376855,-8.05913 8.733403,-10.25418 10.110257,-2.19505 z"
       inkscape:connector-curvature="0" />
    <path
       style="fill:#808080;stroke:#808080;stroke-width:0.3595601;stroke-opacity:1"
       id="path3121"
       d="m 115.95933,961.56765 c -4.2168,1.22355 -8.4447,2.39607 -12.6442,3.69572 -9.130347,2.97181 -18.226927,6.03581 -27.444384,8.65349 -11.905152,3.30392 -24.027086,5.41942 -36.130245,7.54608 -6.366536,1.11237 -12.712094,2.36809 -19.062414,3.59014 -2.190249,0.30834 -4.323853,0.95258 -6.496623,1.36056 -1.864828,0.37424 -3.696348,1.18066 -5.6292586,0.82035 -4.4125208,-0.82249 -0.06232,-0.71259 -3.6956579,-0.6597 -0.1549326,0.13077 -0.3189064,-0.11633 -0.1639739,-0.247 l 0,0 c 1.7289315,-5.76623 -0.831306,3.19155 0.7738512,-4.28762 0.5614575,-2.61609 2.4241656,-4.44541 4.1398486,-6.12471 0.4614506,-0.35771 0.9039056,-0.74877 1.3843596,-1.07313 2.259602,-1.52553 4.934954,-2.07693 7.447577,-2.81001 6.446678,-1.56815 12.969996,-2.68575 19.482927,-3.84087 11.753018,-2.02968 23.526427,-4.03248 35.099188,-7.15832 9.224225,-2.5661 18.356402,-5.51388 27.565635,-8.14419 4.5402,-1.14658 9.08698,-2.38769 13.72071,-2.94494 7.29128,-1.31737 8.94394,10.30678 1.65266,11.62415 z"
       inkscape:connector-curvature="0" />
    <path
       style="fill:#808080;stroke:#808080;stroke-width:0.3595601;stroke-opacity:1"
       id="path3123"
       d="m 117.78346,992.34591 c -5.94391,1.34569 -11.90018,2.66175 -17.827599,4.12096 -13.269896,3.30831 -26.433783,7.12503 -39.610747,10.86783 -10.824922,3.0911 -21.646125,6.2078 -32.370316,9.7209 -4.532341,1.4767 -8.946481,3.5367 -13.639417,4.2707 -1.134902,0.1101 -1.678923,0.277 -2.799882,-0.063 -0.520058,-0.1579 -0.983689,-0.5056 -1.501402,-0.673 -0.4178856,-0.1343 -0.8588626,-0.1526 -1.2882946,-0.2289 -0.160131,0.1229 -0.313789,-0.1329 -0.153653,-0.2553 l 0,0 c 0.592724,-2.4953 0.445286,-4.3186 2.2418566,-6.2604 0.434394,-0.4934 0.839719,-1.0214 1.303181,-1.4799 3.610143,-3.5709 8.325985,-5.2972 12.804678,-6.9366 10.849399,-3.6375 21.832836,-6.72941 32.818389,-9.79555 13.360977,-3.70675 26.732866,-7.40753 40.227167,-10.45172 6.334519,-1.25715 12.784239,-2.60904 19.242349,-2.26772 5.91626,-0.44136 6.46995,8.99064 0.55369,9.43201 z"
       inkscape:connector-curvature="0" />
  </g>
</svg>
